<svg width="12" height="12" viewBox="0 0 12 12" fill="none" xmlns="http://www.w3.org/2000/svg">
<path d="M10.6667 3.08333H8.33342V1.91667L7.16675 0.75H4.83342L3.66675 1.91667V3.08333H1.33341C0.691748 3.08333 0.166748 3.60833 0.166748 4.25V7.16667C0.166748 7.60417 0.400081 7.97167 0.750081 8.17583V10.0833C0.750081 10.7308 1.26925 11.25 1.91675 11.25H10.0834C10.7309 11.25 11.2501 10.7308 11.2501 10.0833V8.17C11.5942 7.96583 11.8334 7.5925 11.8334 7.16667V4.25C11.8334 3.60833 11.3084 3.08333 10.6667 3.08333ZM4.83342 1.91667H7.16675V3.08333H4.83342V1.91667ZM1.33341 4.25H10.6667V7.16667H7.75008V5.41667H4.25008V7.16667H1.33341V4.25ZM6.58342 7.75H5.41675V6.58333H6.58342V7.75ZM10.0834 10.0833H1.91675V8.33333H4.25008V8.91667H7.75008V8.33333H10.0834V10.0833Z" fill="#3DBEA3"/>
</svg>
