<svg width="12" height="12" viewBox="0 0 12 12" fill="none" xmlns="http://www.w3.org/2000/svg">
<path d="M6.00008 3.08333V0.75H0.166748V11.25H11.8334V3.08333H6.00008ZM2.50008 10.0833H1.33341V8.91667H2.50008V10.0833ZM2.50008 7.75H1.33341V6.58333H2.50008V7.75ZM2.50008 5.41667H1.33341V4.25H2.50008V5.41667ZM2.50008 3.08333H1.33341V1.91667H2.50008V3.08333ZM4.83342 10.0833H3.66675V8.91667H4.83342V10.0833ZM4.83342 7.75H3.66675V6.58333H4.83342V7.75ZM4.83342 5.41667H3.66675V4.25H4.83342V5.41667ZM4.83342 3.08333H3.66675V1.91667H4.83342V3.08333ZM10.6667 10.0833H6.00008V8.91667H7.16675V7.75H6.00008V6.58333H7.16675V5.41667H6.00008V4.25H10.6667V10.0833ZM9.50008 5.41667H8.33342V6.58333H9.50008V5.41667ZM9.50008 7.75H8.33342V8.91667H9.50008V7.75Z" fill="#3DBEA3"/>
</svg>
