<svg width="12" height="12" viewBox="0 0 12 12" fill="none" xmlns="http://www.w3.org/2000/svg">
<path d="M3.08333 5.41663H4.25V6.58329H3.08333V5.41663ZM11.25 2.49996V10.6666C11.25 11.3083 10.725 11.8333 10.0833 11.8333H1.91667C1.26917 11.8333 0.75 11.3083 0.75 10.6666L0.755833 2.49996C0.755833 1.85829 1.26917 1.33329 1.91667 1.33329H2.5V0.166626H3.66667V1.33329H8.33333V0.166626H9.5V1.33329H10.0833C10.725 1.33329 11.25 1.85829 11.25 2.49996ZM1.91667 3.66663H10.0833V2.49996H1.91667V3.66663ZM10.0833 10.6666V4.83329H1.91667V10.6666H10.0833ZM7.75 6.58329H8.91667V5.41663H7.75V6.58329ZM5.41667 6.58329H6.58333V5.41663H5.41667V6.58329Z" fill="#3DBEA3"/>
</svg>
