<svg width="10" height="4" viewBox="0 0 10 4" fill="none" xmlns="http://www.w3.org/2000/svg">
<path d="M1.49992 0.833328C0.858252 0.833328 0.333252 1.35833 0.333252 1.99999C0.333252 2.64166 0.858252 3.16666 1.49992 3.16666C2.14159 3.16666 2.66658 2.64166 2.66658 1.99999C2.66658 1.35833 2.14159 0.833328 1.49992 0.833328ZM8.49992 0.833328C7.85825 0.833328 7.33325 1.35833 7.33325 1.99999C7.33325 2.64166 7.85825 3.16666 8.49992 3.16666C9.14158 3.16666 9.66658 2.64166 9.66658 1.99999C9.66658 1.35833 9.14158 0.833328 8.49992 0.833328ZM4.99992 0.833328C4.35825 0.833328 3.83325 1.35833 3.83325 1.99999C3.83325 2.64166 4.35825 3.16666 4.99992 3.16666C5.64158 3.16666 6.16658 2.64166 6.16658 1.99999C6.16658 1.35833 5.64158 0.833328 4.99992 0.833328Z" fill="#3DBEA3"/>
</svg>
