<?xml version="1.0" encoding="utf-8"?>
<!-- Generator: Adobe Illustrator 19.2.1, SVG Export Plug-In . SVG Version: 6.00 Build 0)  -->
<svg version="1.1" id="Layer_1" xmlns="http://www.w3.org/2000/svg" xmlns:xlink="http://www.w3.org/1999/xlink" x="0px" y="0px"
	 viewBox="0 0 8.2 11.7" style="enable-background:new 0 0 8.2 11.7;" xml:space="preserve">
<style type="text/css">
	.st0{fill:#3DBEA3;}
</style>
<path class="st0" d="M4.1,0C1.8,0,0,1.8,0,4.1c0,3.1,4.1,7.6,4.1,7.6s4.1-4.5,4.1-7.6C8.2,1.8,6.3,0,4.1,0z M1.2,4.1
	c0-1.6,1.3-2.9,2.9-2.9S7,2.5,7,4.1c0,1.7-1.7,4.2-2.9,5.8C2.9,8.3,1.2,5.7,1.2,4.1z"/>
<path class="st0" d="M4.1,5.5c0.8,0,1.5-0.7,1.5-1.5c0-0.8-0.7-1.5-1.5-1.5c-0.8,0-1.5,0.7-1.5,1.5C2.6,4.9,3.3,5.5,4.1,5.5z"/>
</svg>
