<svg width="9" height="14" viewBox="0 0 9 14" fill="none" xmlns="http://www.w3.org/2000/svg">
<path d="M7.0415 0.583374H2.37484C1.56984 0.583374 0.916504 1.23671 0.916504 2.04171V11.9584C0.916504 12.7634 1.56984 13.4167 2.37484 13.4167H7.0415C7.8465 13.4167 8.49984 12.7634 8.49984 11.9584V2.04171C8.49984 1.23671 7.8465 0.583374 7.0415 0.583374ZM4.70817 12.8334C4.224 12.8334 3.83317 12.4425 3.83317 11.9584C3.83317 11.4742 4.224 11.0834 4.70817 11.0834C5.19234 11.0834 5.58317 11.4742 5.58317 11.9584C5.58317 12.4425 5.19234 12.8334 4.70817 12.8334ZM7.33317 10.5H2.08317V2.33337H7.33317V10.5Z" fill="#3DBEA3"/>
</svg>
