<svg width="12" height="12" viewBox="0 0 12 12" fill="none" xmlns="http://www.w3.org/2000/svg">
<path d="M11.489 5.75502L6.239 0.50502C6.029 0.29502 5.73734 0.166687 5.4165 0.166687H1.33317C0.691504 0.166687 0.166504 0.691687 0.166504 1.33335V5.41669C0.166504 5.73752 0.294837 6.02919 0.510671 6.24502L5.76067 11.495C5.97067 11.705 6.26234 11.8334 6.58317 11.8334C6.904 11.8334 7.19567 11.705 7.40567 11.4892L11.489 7.40585C11.7048 7.19585 11.8332 6.90419 11.8332 6.58335C11.8332 6.26252 11.699 5.96502 11.489 5.75502ZM6.58317 10.6725L1.33317 5.41669V1.33335H5.4165V1.32752L10.6665 6.57752L6.58317 10.6725Z" fill="#3DBEA3"/>
</svg>
