<svg width="12" height="13" viewBox="0 0 12 13" fill="none" xmlns="http://www.w3.org/2000/svg">
<path d="M10.0833 1.74992H7.645C7.4 1.07325 6.75833 0.583252 6 0.583252C5.24167 0.583252 4.6 1.07325 4.355 1.74992H1.91667C1.275 1.74992 0.75 2.27492 0.75 2.91659V11.0833C0.75 11.7249 1.275 12.2499 1.91667 12.2499H10.0833C10.725 12.2499 11.25 11.7249 11.25 11.0833V2.91659C11.25 2.27492 10.725 1.74992 10.0833 1.74992ZM6 1.60409C6.12833 1.60409 6.23917 1.66242 6.32083 1.74992C6.39083 1.82575 6.4375 1.93075 6.4375 2.04159C6.4375 2.28075 6.23917 2.47909 6 2.47909C5.76083 2.47909 5.5625 2.28075 5.5625 2.04159C5.5625 1.93075 5.60917 1.82575 5.67917 1.74992C5.76083 1.66242 5.87167 1.60409 6 1.60409ZM10.0833 11.0833H1.91667V2.91659H10.0833V11.0833ZM6 3.49992C5.0375 3.49992 4.25 4.28742 4.25 5.24992C4.25 6.21242 5.0375 6.99992 6 6.99992C6.9625 6.99992 7.75 6.21242 7.75 5.24992C7.75 4.28742 6.9625 3.49992 6 3.49992ZM6 5.83325C5.67917 5.83325 5.41667 5.57075 5.41667 5.24992C5.41667 4.92909 5.67917 4.66659 6 4.66659C6.32083 4.66659 6.58333 4.92909 6.58333 5.24992C6.58333 5.57075 6.32083 5.83325 6 5.83325ZM2.5 9.60742V10.4999H9.5V9.60742C9.5 8.14909 7.18417 7.51909 6 7.51909C4.81583 7.51909 2.5 8.14325 2.5 9.60742ZM3.8475 9.33325C4.25 9.00659 5.23583 8.67992 6 8.67992C6.76417 8.67992 7.75583 9.00659 8.1525 9.33325H3.8475Z" fill="#3DBEA3"/>
</svg>
